<svg xmlns="http://www.w3.org/2000/svg" viewBox="0 0 200 200" width="200" height="200" role="img" aria-label="BASoftbaby amblemi">
  <title>BASoftbaby amblemi</title>

  <defs>
    <clipPath id="ic"><circle cx="100" cy="100" r="74"/></clipPath>
    <polygon id="yildiz" points="0,-5 1.18,-1.62 4.76,-1.55 1.9,0.62 2.94,4.05 0,2 -2.94,4.05 -1.9,0.62 -4.76,-1.55 -1.18,-1.62"/>
  </defs>

  <circle cx="100" cy="100" r="96" fill="#FCF5E7" stroke="#E8D3AC" stroke-width="2"/>
  <circle cx="100" cy="100" r="85" fill="none" stroke="#DCBB8C" stroke-width="3.2"
          stroke-linecap="round" stroke-dasharray="0.1 9"/>
  <circle cx="100" cy="100" r="74" fill="#FFFFFF"/>

  <g clip-path="url(#ic)">

    <!-- yildizlar -->
    <use href="#yildiz" transform="translate(50,52) scale(0.85)" fill="#9FD9C0"/>
    <use href="#yildiz" transform="translate(136,62) scale(0.8)" fill="#F3C265"/>
    <use href="#yildiz" transform="translate(152,102) scale(0.6)" fill="#9FD9C0"/>
    <circle cx="44" cy="84" r="2.1" fill="#7BADD6"/>
    <circle cx="118" cy="44" r="1.9" fill="#9FD9C0"/>
    <circle cx="152" cy="80" r="2.1" fill="#F3C265"/>
    <circle cx="62" cy="44" r="1.7" fill="#7BADD6"/>
    <circle cx="150" cy="122" r="1.9" fill="#9FD9C0"/>
    <circle cx="40" cy="112" r="1.6" fill="#F3C265"/>
    <circle cx="90" cy="38" r="1.7" fill="#7BADD6"/>

    <!-- ay -->
    <g transform="rotate(-20 74 84)">
      <path d="M 74 54 A 30 30 0 1 0 74 114 A 35 35 0 0 1 74 54 Z"
            fill="#A8DDC7" stroke="#5FA98C" stroke-width="2.2" stroke-linejoin="round"/>
      <circle cx="58" cy="74" r="2.3" fill="#FFFFFF" opacity=".9"/>
      <circle cx="53" cy="88" r="1.7" fill="#FFFFFF" opacity=".9"/>
      <circle cx="60" cy="100" r="2" fill="#FFFFFF" opacity=".9"/>
    </g>

    <!-- ayicik -->
    <g stroke="#B37A42" stroke-width="2.2" stroke-linejoin="round" stroke-linecap="round">
      <ellipse cx="106" cy="122" rx="25" ry="15" fill="#F2B76B"/>
      <ellipse cx="129" cy="127" rx="8" ry="5.5" fill="#F7CE95" transform="rotate(18 129 127)"/>
      <circle cx="89" cy="75" r="8.5" fill="#EDA85C"/>
      <circle cx="120" cy="74" r="8.5" fill="#EDA85C"/>
      <circle cx="104" cy="89" r="19" fill="#F2B76B"/>
    </g>
    <circle cx="89" cy="75" r="4.2" fill="#E0956A" stroke="none"/>
    <circle cx="120" cy="74" r="4.2" fill="#E0956A" stroke="none"/>
    <ellipse cx="104" cy="96.5" rx="11" ry="8" fill="#FBE0BC" stroke="none"/>
    <ellipse cx="104" cy="92.5" rx="3.3" ry="2.5" fill="#8A5B2E" stroke="none"/>
    <path d="M104 95 v2 M104 97 q -2.8 2.5 -5 .2 M104 97 q 2.8 2.5 5 .2"
          fill="none" stroke="#8A5B2E" stroke-width="1.5" stroke-linecap="round"/>
    <path d="M91.5 85 q 4.4 -4.8 8.8 0 M111 84.5 q 4.4 -4.8 8.8 0"
          fill="none" stroke="#8A5B2E" stroke-width="2" stroke-linecap="round"/>
    <ellipse cx="89" cy="95" rx="4.4" ry="2.8" fill="#F5A79E" opacity=".7" stroke="none"/>
    <ellipse cx="119" cy="94" rx="4.4" ry="2.8" fill="#F5A79E" opacity=".7" stroke="none"/>

    <!-- tavsan -->
    <g stroke="#B37A42" stroke-width="2" stroke-linejoin="round" stroke-linecap="round">
      <ellipse cx="139" cy="121" rx="12" ry="10" fill="#FBEFDF"/>
      <ellipse cx="131" cy="86" rx="6.2" ry="15" fill="#FBEFDF" transform="rotate(-13 131 86)"/>
      <ellipse cx="145" cy="87" rx="6" ry="14" fill="#FBEFDF" transform="rotate(12 145 87)"/>
      <circle cx="138" cy="104" r="13" fill="#FBEFDF"/>
    </g>
    <ellipse cx="131" cy="87" rx="2.9" ry="9.5" fill="#F3BDB4" transform="rotate(-13 131 87)" stroke="none"/>
    <ellipse cx="145" cy="88" rx="2.8" ry="8.8" fill="#F3BDB4" transform="rotate(12 145 88)" stroke="none"/>
    <path d="M130.5 103.5 q 3.1 -3.4 6.2 0 M141.5 103.5 q 3 -3.3 6 0"
          fill="none" stroke="#8A5B2E" stroke-width="1.8" stroke-linecap="round"/>
    <ellipse cx="138.5" cy="109" rx="2.3" ry="1.7" fill="#E39187" stroke="none"/>
    <ellipse cx="129" cy="110" rx="3.3" ry="2.1" fill="#F5A79E" opacity=".7" stroke="none"/>
    <ellipse cx="148" cy="109.5" rx="3.3" ry="2.1" fill="#F5A79E" opacity=".7" stroke="none"/>

    <!-- bulut -->
    <path d="M60 154 A 14 14 0 0 1 56 128 A 16 16 0 0 1 82 122 A 21 21 0 0 1 120 121
             A 15 15 0 0 1 144 131 A 13 13 0 0 1 145 154 A 19 19 0 0 1 110 158
             A 20 20 0 0 1 76 157 A 13 13 0 0 1 60 154 Z"
          fill="#FAE0AE" stroke="#D9A85B" stroke-width="2.2" stroke-linejoin="round"/>
    <path d="M70 140 q 11 -5 22 -1 M100 146 q 13 -6 26 -2 M84 131 q 8 -4 16 -1"
          fill="none" stroke="#F1C77F" stroke-width="3" stroke-linecap="round"/>
  </g>
</svg>
